<svg id="visual" viewBox="0 0 900 600" width="900" height="600" xmlns="http://www.w3.org/2000/svg" xmlns:xlink="http://www.w3.org/1999/xlink" version="1.1"><rect width="900" height="600" fill="#090504"></rect><g><g transform="translate(741 538)"><path d="M98.1 -28.3C111.2 8.3 94.8 58.1 61.7 81.4C28.5 104.6 -21.3 101.3 -54.7 76.7C-88.1 52.1 -105 6.3 -93.1 -28.7C-81.3 -63.7 -40.6 -87.8 1 -88.2C42.5 -88.5 85.1 -65 98.1 -28.3Z" stroke="#9cb73c" fill="none" stroke-width="20"></path></g><g transform="translate(321 390)"><path d="M65.5 -22.2C74.7 7 64.9 41.5 43.2 56.6C21.5 71.7 -12.2 67.4 -36.1 49.9C-60.1 32.5 -74.3 1.9 -66.7 -25.3C-59 -52.4 -29.5 -76.1 -0.7 -75.8C28.1 -75.6 56.3 -51.5 65.5 -22.2Z" stroke="#9cb73c" fill="none" stroke-width="20"></path></g><g transform="translate(886 122)"><path d="M76.4 -26.6C86.4 5.7 73 43.9 44.7 65.3C16.5 86.7 -26.7 91.4 -54 72.1C-81.3 52.8 -92.7 9.5 -81.1 -25.2C-69.5 -59.8 -34.7 -85.8 -0.7 -85.5C33.3 -85.3 66.5 -58.9 76.4 -26.6Z" stroke="#9cb73c" fill="none" stroke-width="20"></path></g><g transform="translate(225 103)"><path d="M49.9 -16.4C57.1 6 50.3 32.9 32.6 46C14.9 59.1 -13.5 58.4 -32.6 44.6C-51.8 30.8 -61.6 3.8 -54.6 -18.3C-47.6 -40.5 -23.8 -57.8 -1.2 -57.3C21.3 -56.9 42.7 -38.9 49.9 -16.4Z" stroke="#9cb73c" fill="none" stroke-width="20"></path></g><g transform="translate(1 361)"><path d="M74.1 -20.7C84.1 6.8 72.1 44.8 47.9 61.3C23.6 77.8 -12.9 72.9 -37.4 54.4C-62 35.9 -74.5 3.8 -66.3 -21.2C-58.1 -46.1 -29 -64 1.5 -64.4C32 -64.9 64.1 -48.1 74.1 -20.7Z" stroke="#9cb73c" fill="none" stroke-width="20"></path></g><g transform="translate(571 80)"><path d="M89.7 -28.6C103 11.7 91.3 60.6 58.6 85.5C25.9 110.4 -27.8 111.2 -60.5 86.6C-93.2 62.1 -105 12.1 -91.4 -28.6C-77.8 -69.4 -38.9 -100.8 -0.3 -100.7C38.2 -100.6 76.5 -68.9 89.7 -28.6Z" stroke="#9cb73c" fill="none" stroke-width="20"></path></g></g></svg>