<svg id="visual" viewBox="0 0 900 600" width="900" height="600" xmlns="http://www.w3.org/2000/svg" xmlns:xlink="http://www.w3.org/1999/xlink" version="1.1"><rect x="0" y="0" width="900" height="600" fill="#090504"></rect><path d="M0 321L50 321L50 300L100 300L100 435L150 435L150 278L200 278L200 357L250 357L250 335L300 335L300 391L350 391L350 456L400 456L400 453L450 453L450 313L500 313L500 382L550 382L550 281L600 281L600 436L650 436L650 436L700 436L700 295L750 295L750 446L800 446L800 453L850 453L850 430L900 430L900 456L900 601L900 601L850 601L850 601L800 601L800 601L750 601L750 601L700 601L700 601L650 601L650 601L600 601L600 601L550 601L550 601L500 601L500 601L450 601L450 601L400 601L400 601L350 601L350 601L300 601L300 601L250 601L250 601L200 601L200 601L150 601L150 601L100 601L100 601L50 601L50 601L0 601Z" fill="#9cb73c"></path><path d="M0 473L50 473L50 390L100 390L100 456L150 456L150 471L200 471L200 365L250 365L250 450L300 450L300 397L350 397L350 367L400 367L400 467L450 467L450 410L500 410L500 454L550 454L550 491L600 491L600 369L650 369L650 432L700 432L700 498L750 498L750 487L800 487L800 478L850 478L850 416L900 416L900 494L900 601L900 601L850 601L850 601L800 601L800 601L750 601L750 601L700 601L700 601L650 601L650 601L600 601L600 601L550 601L550 601L500 601L500 601L450 601L450 601L400 601L400 601L350 601L350 601L300 601L300 601L250 601L250 601L200 601L200 601L150 601L150 601L100 601L100 601L50 601L50 601L0 601Z" fill="#9cb73c"></path><path d="M0 515L50 515L50 468L100 468L100 446L150 446L150 530L200 530L200 459L250 459L250 537L300 537L300 452L350 452L350 505L400 505L400 533L450 533L450 525L500 525L500 530L550 530L550 453L600 453L600 506L650 506L650 497L700 497L700 475L750 475L750 536L800 536L800 534L850 534L850 517L900 517L900 466L900 601L900 601L850 601L850 601L800 601L800 601L750 601L750 601L700 601L700 601L650 601L650 601L600 601L600 601L550 601L550 601L500 601L500 601L450 601L450 601L400 601L400 601L350 601L350 601L300 601L300 601L250 601L250 601L200 601L200 601L150 601L150 601L100 601L100 601L50 601L50 601L0 601Z" fill="#9cb73c"></path></svg>