<svg id="visual" viewBox="0 0 900 600" width="900" height="600" xmlns="http://www.w3.org/2000/svg" xmlns:xlink="http://www.w3.org/1999/xlink" version="1.1"><rect width="900" height="600" fill="#090504"></rect><g><g transform="translate(674 64)"><path d="M0 -65.7L56.9 -32.8L56.9 32.8L0 65.7L-56.9 32.8L-56.9 -32.8Z" fill="#9cb73c"></path></g><g transform="translate(240 114)"><path d="M0 -62L53.7 -31L53.7 31L0 62L-53.7 31L-53.7 -31Z" fill="#9cb73c"></path></g><g transform="translate(748 258)"><path d="M0 -34L29.4 -17L29.4 17L0 34L-29.4 17L-29.4 -17Z" fill="#9cb73c"></path></g><g transform="translate(495 449)"><path d="M0 -52L45 -26L45 26L0 52L-45 26L-45 -26Z" fill="#9cb73c"></path></g><g transform="translate(694 448)"><path d="M0 -42L36.4 -21L36.4 21L0 42L-36.4 21L-36.4 -21Z" fill="#9cb73c"></path></g><g transform="translate(790 549)"><path d="M0 -26L22.5 -13L22.5 13L0 26L-22.5 13L-22.5 -13Z" fill="#9cb73c"></path></g><g transform="translate(530 282)"><path d="M0 -64L55.4 -32L55.4 32L0 64L-55.4 32L-55.4 -32Z" fill="#9cb73c"></path></g><g transform="translate(34 61)"><path d="M0 -58L50.2 -29L50.2 29L0 58L-50.2 29L-50.2 -29Z" fill="#9cb73c"></path></g><g transform="translate(809 110)"><path d="M0 -26L22.5 -13L22.5 13L0 26L-22.5 13L-22.5 -13Z" fill="#9cb73c"></path></g><g transform="translate(603 548)"><path d="M0 -58L50.2 -29L50.2 29L0 58L-50.2 29L-50.2 -29Z" fill="#9cb73c"></path></g><g transform="translate(333 416)"><path d="M0 -45L39 -22.5L39 22.5L0 45L-39 22.5L-39 -22.5Z" fill="#9cb73c"></path></g><g transform="translate(444 11)"><path d="M0 -40L34.6 -20L34.6 20L0 40L-34.6 20L-34.6 -20Z" fill="#9cb73c"></path></g><g transform="translate(319 263)"><path d="M0 -25L21.7 -12.5L21.7 12.5L0 25L-21.7 12.5L-21.7 -12.5Z" fill="#9cb73c"></path></g><g transform="translate(121 338)"><path d="M0 -63L54.6 -31.5L54.6 31.5L0 63L-54.6 31.5L-54.6 -31.5Z" fill="#9cb73c"></path></g><g transform="translate(285 568)"><path d="M0 -64L55.4 -32L55.4 32L0 64L-55.4 32L-55.4 -32Z" fill="#9cb73c"></path></g><g transform="translate(3 278)"><path d="M0 -32L27.7 -16L27.7 16L0 32L-27.7 16L-27.7 -16Z" fill="#9cb73c"></path></g><g transform="translate(898 278)"><path d="M0 -46L39.8 -23L39.8 23L0 46L-39.8 23L-39.8 -23Z" fill="#9cb73c"></path></g><g transform="translate(132 586)"><path d="M0 -42L36.4 -21L36.4 21L0 42L-36.4 21L-36.4 -21Z" fill="#9cb73c"></path></g><g transform="translate(517 144)"><path d="M0 -34L29.4 -17L29.4 17L0 34L-29.4 17L-29.4 -17Z" fill="#9cb73c"></path></g></g></svg>