<svg id="visual" viewBox="0 0 960 540" width="960" height="540" xmlns="http://www.w3.org/2000/svg" xmlns:xlink="http://www.w3.org/1999/xlink" version="1.1"><rect width="960" height="540" fill="#090504"></rect><g><g transform="translate(732 121)"><path d="M0 -81.3L70.4 -40.7L70.4 40.7L0 81.3L-70.4 40.7L-70.4 -40.7Z" fill="#89fc00"></path></g><g transform="translate(914 298)"><path d="M0 -61L52.8 -30.5L52.8 30.5L0 61L-52.8 30.5L-52.8 -30.5Z" fill="#89fc00"></path></g><g transform="translate(445 433)"><path d="M0 -68L58.9 -34L58.9 34L0 68L-58.9 34L-58.9 -34Z" fill="#89fc00"></path></g><g transform="translate(475 216)"><path d="M0 -63L54.6 -31.5L54.6 31.5L0 63L-54.6 31.5L-54.6 -31.5Z" fill="#89fc00"></path></g><g transform="translate(64 319)"><path d="M0 -51L44.2 -25.5L44.2 25.5L0 51L-44.2 25.5L-44.2 -25.5Z" fill="#89fc00"></path></g><g transform="translate(286 24)"><path d="M0 -71L61.5 -35.5L61.5 35.5L0 71L-61.5 35.5L-61.5 -35.5Z" fill="#89fc00"></path></g><g transform="translate(794 531)"><path d="M0 -40L34.6 -20L34.6 20L0 40L-34.6 20L-34.6 -20Z" fill="#89fc00"></path></g><g transform="translate(102 483)"><path d="M0 -75L65 -37.5L65 37.5L0 75L-65 37.5L-65 -37.5Z" fill="#89fc00"></path></g><g transform="translate(931 118)"><path d="M0 -63L54.6 -31.5L54.6 31.5L0 63L-54.6 31.5L-54.6 -31.5Z" fill="#89fc00"></path></g><g transform="translate(69 147)"><path d="M0 -61L52.8 -30.5L52.8 30.5L0 61L-52.8 30.5L-52.8 -30.5Z" fill="#89fc00"></path></g><g transform="translate(688 317)"><path d="M0 -63L54.6 -31.5L54.6 31.5L0 63L-54.6 31.5L-54.6 -31.5Z" fill="#89fc00"></path></g><g transform="translate(552 19)"><path d="M0 -43L37.2 -21.5L37.2 21.5L0 43L-37.2 21.5L-37.2 -21.5Z" fill="#89fc00"></path></g><g transform="translate(280 267)"><path d="M0 -49L42.4 -24.5L42.4 24.5L0 49L-42.4 24.5L-42.4 -24.5Z" fill="#89fc00"></path></g><g transform="translate(615 507)"><path d="M0 -57L49.4 -28.5L49.4 28.5L0 57L-49.4 28.5L-49.4 -28.5Z" fill="#89fc00"></path></g><g transform="translate(265 526)"><path d="M0 -55L47.6 -27.5L47.6 27.5L0 55L-47.6 27.5L-47.6 -27.5Z" fill="#89fc00"></path></g></g></svg>