<svg id="visual" viewBox="0 0 900 600" width="900" height="600" xmlns="http://www.w3.org/2000/svg" xmlns:xlink="http://www.w3.org/1999/xlink" version="1.1"><path d="M0 115L41 115L41 193L82 193L82 97L123 97L123 157L164 157L164 133L205 133L205 79L245 79L245 73L286 73L286 73L327 73L327 163L368 163L368 139L409 139L409 127L450 127L450 115L491 115L491 151L532 151L532 181L573 181L573 49L614 49L614 109L655 109L655 127L695 127L695 121L736 121L736 91L777 91L777 61L818 61L818 151L859 151L859 109L900 109L900 163L900 0L900 0L859 0L859 0L818 0L818 0L777 0L777 0L736 0L736 0L695 0L695 0L655 0L655 0L614 0L614 0L573 0L573 0L532 0L532 0L491 0L491 0L450 0L450 0L409 0L409 0L368 0L368 0L327 0L327 0L286 0L286 0L245 0L245 0L205 0L205 0L164 0L164 0L123 0L123 0L82 0L82 0L41 0L41 0L0 0Z" fill="#009473"></path><path d="M0 163L41 163L41 253L82 253L82 199L123 199L123 217L164 217L164 229L205 229L205 163L245 163L245 133L286 133L286 115L327 115L327 223L368 223L368 181L409 181L409 163L450 163L450 163L491 163L491 205L532 205L532 211L573 211L573 103L614 103L614 169L655 169L655 229L695 229L695 193L736 193L736 139L777 139L777 157L818 157L818 187L859 187L859 163L900 163L900 253L900 161L900 107L859 107L859 149L818 149L818 59L777 59L777 89L736 89L736 119L695 119L695 125L655 125L655 107L614 107L614 47L573 47L573 179L532 179L532 149L491 149L491 113L450 113L450 125L409 125L409 137L368 137L368 161L327 161L327 71L286 71L286 71L245 71L245 77L205 77L205 131L164 131L164 155L123 155L123 95L82 95L82 191L41 191L41 113L0 113Z" fill="#00a56f"></path><path d="M0 259L41 259L41 427L82 427L82 295L123 295L123 397L164 397L164 391L205 391L205 337L245 337L245 415L286 415L286 349L327 349L327 409L368 409L368 349L409 349L409 361L450 361L450 361L491 361L491 337L532 337L532 403L573 403L573 193L614 193L614 283L655 283L655 427L695 427L695 409L736 409L736 349L777 349L777 301L818 301L818 445L859 445L859 331L900 331L900 433L900 251L900 161L859 161L859 185L818 185L818 155L777 155L777 137L736 137L736 191L695 191L695 227L655 227L655 167L614 167L614 101L573 101L573 209L532 209L532 203L491 203L491 161L450 161L450 161L409 161L409 179L368 179L368 221L327 221L327 113L286 113L286 131L245 131L245 161L205 161L205 227L164 227L164 215L123 215L123 197L82 197L82 251L41 251L41 161L0 161Z" fill="#00b666"></path><path d="M0 511L41 511L41 565L82 565L82 487L123 487L123 523L164 523L164 571L205 571L205 511L245 511L245 517L286 517L286 493L327 493L327 481L368 481L368 565L409 565L409 463L450 463L450 469L491 469L491 481L532 481L532 505L573 505L573 481L614 481L614 553L655 553L655 499L695 499L695 559L736 559L736 541L777 541L777 541L818 541L818 541L859 541L859 565L900 565L900 565L900 431L900 329L859 329L859 443L818 443L818 299L777 299L777 347L736 347L736 407L695 407L695 425L655 425L655 281L614 281L614 191L573 191L573 401L532 401L532 335L491 335L491 359L450 359L450 359L409 359L409 347L368 347L368 407L327 407L327 347L286 347L286 413L245 413L245 335L205 335L205 389L164 389L164 395L123 395L123 293L82 293L82 425L41 425L41 257L0 257Z" fill="#29c656"></path><path d="M0 601L41 601L41 601L82 601L82 601L123 601L123 601L164 601L164 601L205 601L205 601L245 601L245 601L286 601L286 601L327 601L327 601L368 601L368 601L409 601L409 601L450 601L450 601L491 601L491 601L532 601L532 601L573 601L573 601L614 601L614 601L655 601L655 601L695 601L695 601L736 601L736 601L777 601L777 601L818 601L818 601L859 601L859 601L900 601L900 601L900 563L900 563L859 563L859 539L818 539L818 539L777 539L777 539L736 539L736 557L695 557L695 497L655 497L655 551L614 551L614 479L573 479L573 503L532 503L532 479L491 479L491 467L450 467L450 461L409 461L409 563L368 563L368 479L327 479L327 491L286 491L286 515L245 515L245 509L205 509L205 569L164 569L164 521L123 521L123 485L82 485L82 563L41 563L41 509L0 509Z" fill="#4cd53e"></path></svg>